<?xml version="1.0" standalone="no"?>
<!DOCTYPE svg PUBLIC "-//W3C//DTD SVG 20010904//EN"
 "http://www.w3.org/TR/2001/REC-SVG-20010904/DTD/svg10.dtd">
<svg version="1.0" xmlns="http://www.w3.org/2000/svg"
 width="203.000000pt" height="213.000000pt" viewBox="0 0 203.000000 213.000000"
 preserveAspectRatio="xMidYMid meet">

<g transform="translate(0.000000,213.000000) scale(0.100000,-0.100000)"
fill="#000000" stroke="none">
<path d="M334 1756 c-85 -27 -140 -93 -151 -184 -10 -88 15 -125 222 -332 102
-102 188 -193 191 -202 3 -10 10 -15 16 -12 6 4 9 3 6 -2 -3 -5 -3 -42 1 -81
4 -40 4 -73 0 -73 -4 0 -11 -14 -14 -32 -4 -17 -29 -54 -55 -82 -27 -28 -49
-54 -49 -58 -1 -5 -4 -8 -8 -8 -16 -1 -82 -74 -76 -84 3 -6 2 -8 -2 -3 -12 10
-86 -63 -78 -77 3 -6 2 -8 -2 -3 -11 9 -86 -63 -79 -75 3 -5 0 -7 -6 -6 -13 3
-49 -40 -54 -63 -2 -8 -7 -22 -11 -32 -20 -47 28 -199 57 -181 6 4 8 2 4 -4
-8 -14 44 -54 61 -47 8 2 12 1 9 -4 -8 -12 29 -21 85 -21 36 0 58 8 107 40 37
25 60 45 56 52 -4 6 -3 8 3 5 6 -4 16 0 23 8 7 8 9 15 4 15 -5 0 6 10 23 21
18 12 30 26 26 32 -3 5 -1 7 4 4 6 -4 16 0 23 8 7 8 9 15 4 15 -5 0 6 10 23
21 18 12 30 26 26 32 -3 5 -1 7 4 4 6 -4 16 0 23 8 7 8 9 15 4 15 -5 0 6 10
23 21 18 12 30 26 26 32 -3 5 -2 7 4 4 15 -9 57 39 48 54 -6 8 -4 10 4 4 13
-7 58 33 54 47 -2 5 1 8 7 8 17 0 49 33 43 43 -3 6 -2 7 4 4 15 -9 57 39 48
54 -5 8 -4 10 4 5 12 -8 101 70 101 89 0 6 -72 82 -160 170 -180 180 -205 220
-198 309 5 61 32 123 66 152 24 20 24 52 0 38 -6 -4 -8 -3 -5 3 6 9 -314 336
-327 334 -7 -1 -32 7 -64 20 -29 12 -47 11 -98 -5z m-101 -91 c-3 -9 -8 -14
-10 -11 -3 3 -2 9 2 15 9 16 15 13 8 -4z"/>
<path d="M1839 1353 c-13 -16 -12 -17 4 -4 9 7 17 15 17 17 0 8 -8 3 -21 -13z"/>
<path d="M138 1233 c-27 -7 -51 -51 -43 -81 6 -26 150 -184 159 -175 3 3 4
-18 2 -46 -2 -42 -8 -57 -34 -84 -18 -18 -29 -37 -25 -42 5 -4 3 -5 -3 -2 -14
8 -104 -86 -104 -107 0 -53 55 -95 101 -77 13 5 84 70 157 143 111 114 132
139 132 165 0 26 -21 52 -141 172 -140 140 -151 147 -201 134z"/>
</g>
</svg>
